<svg xmlns="http://www.w3.org/2000/svg" width="23" height="14.82" viewBox="0 0 23 14.82">
  <g id="Layer_2" data-name="Layer 2" transform="translate(0.019 0.005)">
    <g id="Layer_1" data-name="Layer 1" transform="translate(-0.019 -0.005)">
      <path id="Path_2263" data-name="Path 2263" d="M6.655,9.63a5.062,5.062,0,0,0,1.364,3.782,4.794,4.794,0,0,0,4.253,1.338,4.514,4.514,0,0,0,3.017-1.719A4.9,4.9,0,0,0,16.3,9.484a4.62,4.62,0,0,0-1.531-3.172,4.806,4.806,0,0,0-4.007-1.174A4.614,4.614,0,0,0,8.3,6.226,4.661,4.661,0,0,0,6.655,9.63ZM12.075,3.1V.747a1.475,1.475,0,0,0-.014-.268.582.582,0,0,0-1.153.053c-.007.073,0,.146,0,.22V3.089c-.046.029-.059.042-.073.045-.056.01-.112.019-.169.024a10.8,10.8,0,0,0-2.752.614A15.076,15.076,0,0,0,4.221,5.738c-.077.055-.156.106-.28.188A2.083,2.083,0,0,0,3.771,5.7q-.714-.718-1.434-1.431a1.514,1.514,0,0,0-.2-.178.576.576,0,0,0-.738.067.584.584,0,0,0-.068.739,1.513,1.513,0,0,0,.178.2q.671.674,1.344,1.346c.061.061.116.126.183.2-.085.079-.149.14-.214.2-.545.5-1.1.991-1.63,1.505a11.439,11.439,0,0,0-.881.976,1.653,1.653,0,0,0-.283.532.509.509,0,0,0,.492.675.664.664,0,0,0,.561-.29A20.626,20.626,0,0,1,4.473,7.026,14.211,14.211,0,0,1,8.8,4.718a8.661,8.661,0,0,1,4.166-.3,11.4,11.4,0,0,1,3.574,1.32,19.841,19.841,0,0,1,5.275,4.4,2.343,2.343,0,0,0,.229.252.581.581,0,0,0,.881-.732,1.443,1.443,0,0,0-.146-.2,20.826,20.826,0,0,0-2.626-2.645c-.067-.056-.132-.116-.214-.188.073-.078.132-.143.194-.2l1.31-1.311a1.541,1.541,0,0,0,.163-.181.58.58,0,0,0-.819-.805,1.656,1.656,0,0,0-.179.165L19.189,5.706c-.062.062-.128.122-.188.178C15.641,3.885,16.133,3.91,12.075,3.1Z" transform="translate(0 0.005)" fill="#8a8a8a"/>
      <path id="Path_2264" data-name="Path 2264" d="M272.739,213.037a4.666,4.666,0,0,1,1.644-3.406,4.609,4.609,0,0,1,2.464-1.088,4.806,4.806,0,0,1,4.007,1.174,4.623,4.623,0,0,1,1.531,3.172,4.9,4.9,0,0,1-1.011,3.548,4.517,4.517,0,0,1-3.017,1.719,4.794,4.794,0,0,1-4.253-1.338A5.055,5.055,0,0,1,272.739,213.037Zm1.747.212c0,.015,0,.064,0,.112a.579.579,0,0,0,1.154.06c.011-.072.015-.145.021-.218a1.913,1.913,0,0,1,1.8-1.763,1.336,1.336,0,0,0,.288-.042.574.574,0,0,0,.4-.6.582.582,0,0,0-.5-.524,1.358,1.358,0,0,0-.22-.006A3.1,3.1,0,0,0,274.486,213.248Z" transform="translate(-266.085 -203.402)" fill="#8a8a8a"/>
      <path id="Path_2265" data-name="Path 2265" d="M12.056,3.1c4.058.809,3.565.785,6.925,2.783.06-.057.126-.116.188-.178l1.415-1.412a1.657,1.657,0,0,1,.179-.165.58.58,0,0,1,.819.805,1.54,1.54,0,0,1-.163.181l-1.31,1.311c-.062.062-.12.127-.194.2.082.073.146.132.214.188a20.826,20.826,0,0,1,2.627,2.645,1.443,1.443,0,0,1,.146.2.581.581,0,0,1-.881.732,2.378,2.378,0,0,1-.229-.252,19.847,19.847,0,0,0-5.275-4.4,11.4,11.4,0,0,0-3.574-1.32,8.66,8.66,0,0,0-4.166.3A14.211,14.211,0,0,0,4.453,7.026,20.626,20.626,0,0,0,1.062,10.24a.66.66,0,0,1-.561.29.509.509,0,0,1-.492-.675,1.653,1.653,0,0,1,.283-.534,11.439,11.439,0,0,1,.881-.976c.531-.514,1.086-1,1.63-1.505.065-.06.13-.122.214-.2-.067-.073-.122-.14-.183-.2Q2.163,5.767,1.491,5.1a1.513,1.513,0,0,1-.178-.2.584.584,0,0,1,.068-.739.576.576,0,0,1,.738-.067,1.514,1.514,0,0,1,.2.176q.718.714,1.432,1.43a2.023,2.023,0,0,1,.171.231c.122-.082.2-.133.28-.188A15.156,15.156,0,0,1,7.889,3.771a10.81,10.81,0,0,1,2.753-.613,1.517,1.517,0,0,0,.169-.024c.014,0,.027-.016.073-.045V.753c0-.073,0-.146,0-.22A.581.581,0,0,1,12.041.482a1.475,1.475,0,0,1,.014.268q0,1.049,0,2.1Z" transform="translate(0.019 0.004)" fill="#8a8a8a"/>
      <path id="Path_2266" data-name="Path 2266" d="M344.3,284.424a3.1,3.1,0,0,1,2.951-2.978,1.367,1.367,0,0,1,.22.006.582.582,0,0,1,.5.524.574.574,0,0,1-.4.6,1.333,1.333,0,0,1-.288.042,1.913,1.913,0,0,0-1.8,1.763c-.006.073-.01.146-.021.218a.579.579,0,0,1-1.154-.06C344.3,284.488,344.3,284.439,344.3,284.424Z" transform="translate(-335.899 -274.578)" fill="#8a8a8a"/>
    </g>
  </g>
</svg>
