<svg xmlns="http://www.w3.org/2000/svg" viewBox="0 0 23 14.74">
    <defs>
        <style>.cls-1{fill:#8a8a8a;}</style>
    </defs>
    <g id="图层_2" data-name="图层 2">
    <g id="图层_1-2" data-name="图层 1">
    <g id="Layer_1" data-name="Layer 1">
        <path id="Path_2264" data-name="Path 2264" class="cls-1" d="M6.65,9.55A4.69,4.69,0,0,1,8.3,6.14a4.51,4.51,0,0,1,2.46-1.08,4.81,4.81,0,0,1,4,1.17A4.59,4.59,0,0,1,16.3,9.4a4.88,4.88,0,0,1-1,3.55,4.54,4.54,0,0,1-3,1.72A4.79,4.79,0,0,1,8,13.33,5.09,5.09,0,0,1,6.65,9.55Zm1.75.21v.11a.58.58,0,0,0,.59.57.56.56,0,0,0,.56-.51,1.52,1.52,0,0,0,0-.21A1.92,1.92,0,0,1,11.38,8a1.35,1.35,0,0,0,.28,0,.58.58,0,0,0-.1-1.12h-.22a3.1,3.1,0,0,0-2.94,3Z"/>
        <path id="Path_2265" data-name="Path 2265" class="cls-1" d="M12.07,3.13c4.06.81,3.57.78,6.93,2.78l.19-.18L20.6,4.32l.18-.17A.58.58,0,0,1,21.6,5l-.16.18L20.13,6.45c-.06.06-.12.13-.2.2l.22.19a21.08,21.08,0,0,1,2.62,2.64,1.3,1.3,0,0,1,.15.2.58.58,0,0,1-.88.74,2.85,2.85,0,0,1-.23-.26,19.91,19.91,0,0,0-5.27-4.4A11.69,11.69,0,0,0,13,4.44a8.76,8.76,0,0,0-4.16.3A14.46,14.46,0,0,0,4.47,7.05a20.66,20.66,0,0,0-3.39,3.22.68.68,0,0,1-.56.29.52.52,0,0,1-.52-.5.57.57,0,0,1,0-.18,1.59,1.59,0,0,1,.28-.53c.28-.34.57-.67.88-1,.53-.51,1.09-1,1.63-1.5.07-.06.13-.13.22-.2l-.19-.2C2.41,6,2,5.57,1.51,5.13l-.18-.2a.58.58,0,0,1,.81-.81,1.12,1.12,0,0,1,.2.18c.48.47,1,1,1.43,1.43A2,2,0,0,1,3.94,6l.28-.19a14.72,14.72,0,0,1,3.69-2,10.76,10.76,0,0,1,2.75-.62l.17,0,.07,0V.56A.58.58,0,0,1,12.06.51a1.22,1.22,0,0,1,0,.27V3.13Z"/>
    </g>
        <rect class="cls-1" x="0.9" y="7.4" width="19.85" height="1.15" rx="0.53" transform="translate(7.76 -5.12) rotate(40.43)"/>
    </g>
    </g>
</svg>